<svg xmlns="http://www.w3.org/2000/svg" xml:space="preserve" width="90" height="73" version="1.1" shape-rendering="geometricPrecision" text-rendering="geometricPrecision" image-rendering="optimizeQuality" fill-rule="evenodd" clip-rule="evenodd" viewBox="0 0 10000 8100" xmlns:xlink="http://www.w3.org/1999/xlink"><defs><linearGradient id="id0" gradientUnits="userSpaceOnUse" x1="5987.82" y1="7224.88" x2="5987.84" y2="830.56"><stop offset="0" stop-opacity="1" stop-color="#2CB133"></stop><stop offset="1" stop-opacity="1" stop-color="#61D469"></stop></linearGradient></defs><g id="_1636338320752"><path fill="white" d="M3188.19 6761.53c703.37,720.43 1685.32,1167.66 2771.79,1167.66 2139.41,0 3873.66,-1734.25 3873.66,-3873.66 0,-2139.41 -1734.25,-3873.66 -3873.66,-3873.66 -1202.87,0 -2277.85,548.24 -2988.27,1408.6l-1111.5 0c-479.12,0 -867.41,385.88 -867.41,861.85 0,475.96 388.29,861.84 867.41,861.84l-834.05 0c-479.11,0 -867.4,385.88 -867.4,861.84 0,475.96 388.29,861.84 867.4,861.84l1649.56 0c-479.12,0 -867.41,385.88 -867.41,861.84 0,475.97 388.29,861.85 867.41,861.85l512.47 0z"></path><path fill="url(#id0)" d="M3140 5482.66l-356.6 0c-241.32,0 -436.86,194.98 -436.86,435.56 0,240.58 195.54,435.55 436.86,435.55l1010.86 0c572.52,540.09 1344.29,871.11 2193.52,871.11 1765.76,0 3197.16,-1431.4 3197.16,-3197.15 0,-1765.76 -1431.4,-3197.16 -3197.16,-3197.16 -995.28,0 -1884.19,454.64 -2470.61,1167.66l-1578.01 0c-241.31,0 -436.85,194.98 -436.85,435.55 0,240.57 195.54,435.55 436.85,435.55l1067.76 0 13.35 0c241.31,0 436.85,194.99 436.85,435.56 0,240.58 -195.54,435.56 -436.85,435.56l-217.04 0 -1737.77 0c-241.32,0 -436.86,194.98 -436.86,435.55 0,240.57 195.54,435.56 436.86,435.56l1778.36 0 428.32 0c241.32,0 436.86,194.98 436.86,435.55 0,240.58 -195.54,435.55 -436.86,435.55l-132.14 0z"></path><path fill="#FEFEFE" fill-rule="nonzero" d="M7711.53 4516.22l346.48 -1524.52c25.01,-110.07 -58.65,-214.89 -171.53,-214.89l-2878.87 0 -67.18 -328.44c-16.75,-81.86 -88.78,-140.65 -172.34,-140.65l-751.48 0c-97.15,0 -175.91,78.76 -175.91,175.91l0 117.27c0,97.15 78.76,175.91 175.91,175.91l512.2 0 514.88 2517.18c-123.18,70.84 -206.19,203.67 -206.19,355.96 0,226.68 183.77,410.45 410.45,410.45 226.69,0 410.45,-183.77 410.45,-410.45 0,-114.88 -47.25,-218.68 -123.31,-293.18l1536.6 0c-76.05,74.5 -123.31,178.3 -123.31,293.18 0,226.68 183.77,410.45 410.45,410.45 226.69,0 410.45,-183.77 410.45,-410.45 0,-162.51 -94.46,-302.94 -231.46,-369.44l40.44 -177.93c25.02,-110.07 -58.65,-214.89 -171.53,-214.89l-1967.35 0 -47.97 -234.55 2148.58 0c82.14,0 153.34,-56.83 171.53,-136.92l0.01 0z"></path></g></svg>